<svg width="32" height="32" viewBox="0 0 1024 1024" xmlns="http://www.w3.org/2000/svg">
  <defs>
    <!-- 背景渐变 - 科技感 -->
    <linearGradient id="bg" x1="0%" y1="0%" x2="100%" y2="100%">
      <stop offset="0%" style="stop-color:#2a2a4e" />
      <stop offset="50%" style="stop-color:#26315e" />
      <stop offset="100%" style="stop-color:#1f1f43" />
    </linearGradient>
    
    <!-- 魔方顶面渐变 - 霓虹蓝 -->
    <linearGradient id="cube1" x1="0%" y1="0%" x2="100%" y2="100%">
      <stop offset="0%" style="stop-color:#00d4ff" />
      <stop offset="50%" style="stop-color:#0099cc" />
      <stop offset="100%" style="stop-color:#006699" />
    </linearGradient>
    
    <!-- 魔方右面渐变 - 霓虹紫 -->
    <linearGradient id="cube2" x1="0%" y1="0%" x2="100%" y2="100%">
      <stop offset="0%" style="stop-color:#8a2be2" />
      <stop offset="50%" style="stop-color:#6a1b9a" />
      <stop offset="100%" style="stop-color:#4a148c" />
    </linearGradient>
    
    <!-- 魔方左面渐变 - 霓虹青 -->
    <linearGradient id="cube3" x1="0%" y1="0%" x2="100%" y2="100%">
      <stop offset="0%" style="stop-color:#00ffcc" />
      <stop offset="50%" style="stop-color:#00cc99" />
      <stop offset="100%" style="stop-color:#009966" />
    </linearGradient>
    
    <!-- 发光效果滤镜 -->
    <filter id="glow" x="-50%" y="-50%" width="200%" height="200%">
      <feGaussianBlur stdDeviation="4" result="coloredBlur"/>
      <feMerge> 
        <feMergeNode in="coloredBlur"/>
        <feMergeNode in="SourceGraphic"/>
      </feMerge>
    </filter>
    
    <!-- 内发光效果 -->
    <filter id="innerGlow" x="-50%" y="-50%" width="200%" height="200%">
      <feGaussianBlur stdDeviation="2" result="blur"/>
      <feComposite in="blur" in2="SourceGraphic" operator="over"/>
    </filter>
  </defs>
  
  <!-- 方形背景 -->
  <rect x="0" y="0" width="1024" height="1024" rx="120" ry="120" fill="url(#bg)"/>
  
  <!-- 装饰性边框 -->
  <rect x="40" y="40" width="944" height="944" rx="80" ry="80" fill="none" stroke="#00d4ff" stroke-width="2" opacity="0.3" filter="url(#glow)"/>
  <rect x="80" y="80" width="864" height="864" rx="60" ry="60" fill="none" stroke="#8a2be2" stroke-width="1" opacity="0.2" filter="url(#glow)"/>
  
  <!-- 魔方主体 - 尺寸增大 -->
  <g transform="translate(512,512)">
    <!-- 魔方顶面 - 尺寸增大 -->
    <path d="M -200,-133 L 0,-266 L 200,-133 L 0,0 Z" fill="url(#cube1)" stroke="#00d4ff" stroke-width="3" filter="url(#glow)"/>
    
    <!-- 魔方左面 - 尺寸增大 -->
    <path d="M -200,-133 L 0,0 L 0,266 L -200,133 Z" fill="url(#cube3)" stroke="#00ffcc" stroke-width="3" filter="url(#glow)"/>
    
    <!-- 魔方右面 - 尺寸增大 -->
    <path d="M 0,0 L 200,-133 L 200,133 L 0,266 Z" fill="url(#cube2)" stroke="#8a2be2" stroke-width="3" filter="url(#glow)"/>
    
    <!-- 魔方网格线 - 科技感 - 位置调整 -->
    <g stroke="#00d4ff" stroke-width="2" opacity="0.8" filter="url(#innerGlow)">
      <!-- 顶面网格 -->
      <line x1="-66" y1="-177" x2="66" y2="-89"/>
      <line x1="-133" y1="-222" x2="133" y2="-44"/>
      <line x1="-66" y1="-89" x2="0" y2="-133"/>
      <line x1="66" y1="-89" x2="0" y2="-133"/>
      
      <!-- 左面网格 -->
      <line x1="-133" y1="-44" x2="-133" y2="44"/>
      <line x1="-66" y1="-89" x2="-66" y2="89"/>
      <line x1="-133" y1="44" x2="-66" y2="177"/>
      <line x1="-66" y1="89" x2="0" y2="133"/>
      
      <!-- 右面网格 -->
      <line x1="133" y1="-44" x2="133" y2="44"/>
      <line x1="66" y1="-89" x2="66" y2="89"/>
      <line x1="133" y1="44" x2="66" y2="177"/>
      <line x1="66" y1="89" x2="0" y2="133"/>
    </g>
    
    <!-- 中心核心 - 科技感 - 尺寸增大 -->
    <circle cx="0" cy="0" r="24" fill="#00d4ff" opacity="0.9" filter="url(#glow)"/>
    <circle cx="0" cy="0" r="15" fill="#ffffff" opacity="0.8"/>
    <circle cx="0" cy="0" r="7" fill="#00d4ff" opacity="1"/>
    
    <!-- 科技装饰元素 - 位置调整 -->
    <g fill="#00d4ff" opacity="0.7" filter="url(#glow)">
      <!-- 电路节点 -->
      <circle cx="-220" cy="-170" r="6"/>
      <circle cx="220" cy="-70" r="5"/>
      <circle cx="-200" cy="170" r="8"/>
      <circle cx="200" cy="190" r="6"/>
      
      <!-- 电路连线 -->
      <line x1="-220" y1="-170" x2="-190" y2="-150" stroke="#00d4ff" stroke-width="2" opacity="0.5"/>
      <line x1="220" y1="-70" x2="190" y2="-90" stroke="#8a2be2" stroke-width="2" opacity="0.5"/>
      <line x1="-200" y1="170" x2="-170" y2="150" stroke="#00ffcc" stroke-width="2" opacity="0.5"/>
      
      <!-- 数据流动效果 -->
      <rect x="-240" y="-85" width="10" height="3" rx="1" fill="#00ffcc" opacity="0.8">
        <animateTransform attributeName="transform" type="translate" values="0,0; 15,0; 0,0" dur="2s" repeatCount="indefinite"/>
      </rect>
      <rect x="190" y="85" width="8" height="3" rx="1" fill="#8a2be2" opacity="0.8">
        <animateTransform attributeName="transform" type="translate" values="0,0; -12,0; 0,0" dur="1.5s" repeatCount="indefinite"/>
      </rect>
    </g>
  </g>
  
  <!-- 四角装饰 -->
  <g fill="#00d4ff" opacity="0.4">
    <circle cx="150" cy="150" r="4"/>
    <circle cx="874" cy="150" r="4"/>
    <circle cx="150" cy="874" r="4"/>
    <circle cx="874" cy="874" r="4"/>
  </g>
</svg>