<svg width="1024" height="1024" viewBox="0 0 1024 1024" xmlns="http://www.w3.org/2000/svg">
  <defs>
    <!-- 背景渐变 - 深色科技感 -->
    <linearGradient id="bg" x1="0%" y1="0%" x2="100%" y2="100%">
      <stop offset="0%" style="stop-color:#1a1a2e" />
      <stop offset="50%" style="stop-color:#16213e" />
      <stop offset="100%" style="stop-color:#0f0f23" />
    </linearGradient>
    
    <!-- 魔方顶面渐变 - 霓虹蓝 -->
    <linearGradient id="cube1" x1="0%" y1="0%" x2="100%" y2="100%">
      <stop offset="0%" style="stop-color:#00d4ff" />
      <stop offset="50%" style="stop-color:#0099cc" />
      <stop offset="100%" style="stop-color:#006699" />
    </linearGradient>
    
    <!-- 魔方右面渐变 - 霓虹紫 -->
    <linearGradient id="cube2" x1="0%" y1="0%" x2="100%" y2="100%">
      <stop offset="0%" style="stop-color:#8a2be2" />
      <stop offset="50%" style="stop-color:#6a1b9a" />
      <stop offset="100%" style="stop-color:#4a148c" />
    </linearGradient>
    
    <!-- 魔方左面渐变 - 霓虹青 -->
    <linearGradient id="cube3" x1="0%" y1="0%" x2="100%" y2="100%">
      <stop offset="0%" style="stop-color:#00ffcc" />
      <stop offset="50%" style="stop-color:#00cc99" />
      <stop offset="100%" style="stop-color:#009966" />
    </linearGradient>
    
    <!-- 发光效果滤镜 -->
    <filter id="glow" x="-50%" y="-50%" width="200%" height="200%">
      <feGaussianBlur stdDeviation="4" result="coloredBlur"/>
      <feMerge> 
        <feMergeNode in="coloredBlur"/>
        <feMergeNode in="SourceGraphic"/>
      </feMerge>
    </filter>
    
    <!-- 内发光效果 -->
    <filter id="innerGlow" x="-50%" y="-50%" width="200%" height="200%">
      <feGaussianBlur stdDeviation="2" result="blur"/>
      <feComposite in="blur" in2="SourceGraphic" operator="over"/>
    </filter>
  </defs>
  
  <!-- 方形背景 -->
  <rect x="0" y="0" width="1024" height="1024" rx="120" ry="120" fill="url(#bg)"/>
  
  <!-- 装饰性边框 -->
  <rect x="40" y="40" width="944" height="944" rx="80" ry="80" fill="none" stroke="#00d4ff" stroke-width="2" opacity="0.3" filter="url(#glow)"/>
  <rect x="80" y="80" width="864" height="864" rx="60" ry="60" fill="none" stroke="#8a2be2" stroke-width="1" opacity="0.2" filter="url(#glow)"/>
  
  <!-- 魔方主体 -->
  <g transform="translate(512,512)">
    <!-- 魔方顶面 -->
    <path d="M -150,-100 L 0,-200 L 150,-100 L 0,0 Z" fill="url(#cube1)" stroke="#00d4ff" stroke-width="3" filter="url(#glow)"/>
    
    <!-- 魔方左面 -->
    <path d="M -150,-100 L 0,0 L 0,200 L -150,100 Z" fill="url(#cube3)" stroke="#00ffcc" stroke-width="3" filter="url(#glow)"/>
    
    <!-- 魔方右面 -->
    <path d="M 0,0 L 150,-100 L 150,100 L 0,200 Z" fill="url(#cube2)" stroke="#8a2be2" stroke-width="3" filter="url(#glow)"/>
    
    <!-- 魔方网格线 - 科技感 -->
    <g stroke="#00d4ff" stroke-width="2" opacity="0.8" filter="url(#innerGlow)">
      <!-- 顶面网格 -->
      <line x1="-50" y1="-133" x2="50" y2="-67"/>
      <line x1="-100" y1="-167" x2="100" y2="-33"/>
      <line x1="-50" y1="-67" x2="0" y2="-100"/>
      <line x1="50" y1="-67" x2="0" y2="-100"/>
      
      <!-- 左面网格 -->
      <line x1="-100" y1="-33" x2="-100" y2="33"/>
      <line x1="-50" y1="-67" x2="-50" y2="67"/>
      <line x1="-100" y1="33" x2="-50" y2="133"/>
      <line x1="-50" y1="67" x2="0" y2="100"/>
      
      <!-- 右面网格 -->
      <line x1="100" y1="-33" x2="100" y2="33"/>
      <line x1="50" y1="-67" x2="50" y2="67"/>
      <line x1="100" y1="33" x2="50" y2="133"/>
      <line x1="50" y1="67" x2="0" y2="100"/>
    </g>
    
    <!-- 中心核心 - 科技感 -->
    <circle cx="0" cy="0" r="18" fill="#00d4ff" opacity="0.9" filter="url(#glow)"/>
    <circle cx="0" cy="0" r="11" fill="#ffffff" opacity="0.8"/>
    <circle cx="0" cy="0" r="5" fill="#00d4ff" opacity="1"/>
    
    <!-- 科技装饰元素 -->
    <g fill="#00d4ff" opacity="0.7" filter="url(#glow)">
      <!-- 电路节点 -->
      <circle cx="-200" cy="-150" r="6"/>
      <circle cx="200" cy="-50" r="5"/>
      <circle cx="-180" cy="150" r="8"/>
      <circle cx="180" cy="170" r="6"/>
      
      <!-- 电路连线 -->
      <line x1="-200" y1="-150" x2="-170" y2="-130" stroke="#00d4ff" stroke-width="2" opacity="0.5"/>
      <line x1="200" y1="-50" x2="170" y2="-70" stroke="#8a2be2" stroke-width="2" opacity="0.5"/>
      <line x1="-180" y1="150" x2="-150" y2="130" stroke="#00ffcc" stroke-width="2" opacity="0.5"/>
      
      <!-- 数据流动效果 -->
      <rect x="-220" y="-75" width="10" height="3" rx="1" fill="#00ffcc" opacity="0.8">
        <animateTransform attributeName="transform" type="translate" values="0,0; 15,0; 0,0" dur="2s" repeatCount="indefinite"/>
      </rect>
      <rect x="170" y="75" width="8" height="3" rx="1" fill="#8a2be2" opacity="0.8">
        <animateTransform attributeName="transform" type="translate" values="0,0; -12,0; 0,0" dur="1.5s" repeatCount="indefinite"/>
      </rect>
    </g>
  </g>
  
  <!-- 四角装饰 -->
  <g fill="#00d4ff" opacity="0.4">
    <circle cx="150" cy="150" r="4"/>
    <circle cx="874" cy="150" r="4"/>
    <circle cx="150" cy="874" r="4"/>
    <circle cx="874" cy="874" r="4"/>
  </g>
</svg>